<svg width="16" height="16" viewBox="0 0 16 16" fill="none" xmlns="http://www.w3.org/2000/svg">
<path d="M9.66621 8V2.9C9.66621 2.4032 9.26301 2 8.76621 2C8.26941 2 7.86621 2.4032 7.86621 2.9V8" stroke="currentColor" stroke-linecap="round" stroke-linejoin="round"/>
<path d="M9.66602 4.09995C9.66602 3.60315 10.0692 3.19995 10.566 3.19995C11.0628 3.19995 11.466 3.60315 11.466 4.09995V7.99995" stroke="currentColor" stroke-linecap="round" stroke-linejoin="round"/>
<path d="M7.86552 4.09995C7.86552 3.60315 7.46232 3.19995 6.96552 3.19995C6.46872 3.19995 6.06552 3.60315 6.06552 4.09995V7.39995V9.19995L4.92492 8.05935C4.56072 7.69515 3.97032 7.69515 3.60612 8.05935C3.29172 8.37375 3.24312 8.86635 3.48972 9.23595L5.59692 12.3968C6.26472 13.3982 7.38852 14 8.59212 14H9.66552C11.6539 14 13.2655 12.3884 13.2655 10.4V7.39995V5.29995C13.2655 4.80315 12.8623 4.39995 12.3655 4.39995C11.8687 4.39995 11.4655 4.80315 11.4655 5.29995" stroke="currentColor" stroke-linecap="round" stroke-linejoin="round"/>
</svg>
